<svg version="1.1" viewBox="0.0 0.0 152.88976377952756 100.02887139107611" fill="none" stroke="none" stroke-linecap="square" stroke-miterlimit="10" xmlns:xlink="http://www.w3.org/1999/xlink" xmlns="http://www.w3.org/2000/svg"><clipPath id="p.0"><path d="m0 0l152.88977 0l0 100.02887l-152.88977 0l0 -100.02887z" clip-rule="nonzero"/></clipPath><g clip-path="url(#p.0)"><path fill="#000000" fill-opacity="0.0" d="m0 0l152.88977 0l0 100.02887l-152.88977 0z" fill-rule="evenodd"/><path fill="#000000" fill-opacity="0.0" d="m20.621418 35.317764l0 0c-1.1138687 -6.7353134 2.5431805 -13.402866 9.419325 -17.173368c6.8761425 -3.7705011 15.765455 -3.9826899 22.895872 -0.54652405l0 0c2.525814 -3.916191 7.1487846 -6.6200504 12.470558 -7.2937136c5.3217773 -0.6736641 10.717293 0.7619934 14.554504 3.872713l0 0c2.1516647 -3.5506706 6.376503 -5.936267 11.175316 -6.3102565c4.798813 -0.37398958 9.492447 1.3165565 12.415367 4.471746l0 0c3.8873062 -3.7637014 10.072098 -5.3483763 15.878189 -4.068327c5.8060913 1.2800493 10.190651 5.194915 11.256462 10.050612l0 0c4.7626038 1.0689068 8.729752 3.786211 10.876465 7.4498463c2.146698 3.6636353 2.2623901 7.9142113 0.31715393 11.653507l0 0c4.6897736 5.0222893 5.7868347 11.714428 2.8817596 17.579025c-2.9050598 5.864601 -9.375793 10.020573 -16.997421 10.916988c-0.053726196 5.504135 -3.7223816 10.554665 -9.591919 13.204895c-5.8695297 2.6502304 -13.023392 2.4863129 -18.704178 -0.42856598c-2.4197083 6.5921555 -9.230385 11.442596 -17.48957 12.455765c-8.259178 1.0131607 -16.486244 -1.9925842 -21.126793 -7.718651c-5.688343 2.8223953 -12.513882 3.635437 -18.936913 2.255722c-6.423031 -1.379715 -11.902508 -4.8359756 -15.2023735 -9.589104l0 0c-5.8127728 0.5596924 -11.43292 -1.9183197 -14.071184 -6.2042084c-2.6382637 -4.2858887 -1.7330198 -9.467285 2.2664614 -12.972691l0 0c-5.1851435 -2.5111046 -7.8309164 -7.493969 -6.5576515 -12.350224c1.2732639 -4.8562546 6.17704 -8.485458 12.154201 -8.995121z" fill-rule="evenodd"/><path fill="#000000" fill-opacity="0.0" d="m14.909967 56.922695l0 0c2.4468842 1.1849976 5.273611 1.7225418 8.100643 1.5404549m3.7028065 17.636871c1.2157288 -0.1170578 2.4073734 -0.36494446 3.5442028 -0.73726654m30.593382 8.070343c-0.8550644 -1.0550842 -1.5709686 -2.1825256 -2.1355133 -3.3631287m40.75336 -1.3741837l0 0c0.44114685 -1.2018509 0.7269745 -2.4388123 0.8527069 -3.6902542m27.442314 -9.085609c0.05718994 -5.8600044 -3.9878693 -11.225487 -10.397713 -13.791809m24.513237 -14.703587c-1.0380554 1.9954414 -2.622757 3.7655678 -4.6298523 5.1715965m-6.56279 -24.275476l0 0c0.17686462 0.8058052 0.25872803 1.6237202 0.24443054 2.4424095m-27.378616 -8.424451l0 0c-0.9696884 0.9388561 -1.7685852 1.9880161 -2.371811 3.114812m-21.2191 -1.2767115l0 0c-0.5167618 0.8527565 -0.9026413 1.7551184 -1.1487579 2.6862993m-25.876698 0.7347717l0 0c1.5087929 0.72709084 2.9046288 1.6022205 4.156849 2.6061687m-36.47163 15.113819l0 0c0.15351868 0.92829895 0.39608765 1.8451576 0.72543716 2.7419853" fill-rule="evenodd"/><path stroke="#000000" stroke-width="3.0" stroke-linejoin="round" stroke-linecap="butt" d="m20.621418 35.317764l0 0c-1.1138687 -6.7353134 2.5431805 -13.402866 9.419325 -17.173368c6.8761425 -3.7705011 15.765455 -3.9826899 22.895872 -0.54652405l0 0c2.525814 -3.916191 7.1487846 -6.6200504 12.470558 -7.2937136c5.3217773 -0.6736641 10.717293 0.7619934 14.554504 3.872713l0 0c2.1516647 -3.5506706 6.376503 -5.936267 11.175316 -6.3102565c4.798813 -0.37398958 9.492447 1.3165565 12.415367 4.471746l0 0c3.8873062 -3.7637014 10.072098 -5.3483763 15.878189 -4.068327c5.8060913 1.2800493 10.190651 5.194915 11.256462 10.050612l0 0c4.7626038 1.0689068 8.729752 3.786211 10.876465 7.4498463c2.146698 3.6636353 2.2623901 7.9142113 0.31715393 11.653507l0 0c4.6897736 5.0222893 5.7868347 11.714428 2.8817596 17.579025c-2.9050598 5.864601 -9.375793 10.020573 -16.997421 10.916988c-0.053726196 5.504135 -3.7223816 10.554665 -9.591919 13.204895c-5.8695297 2.6502304 -13.023392 2.4863129 -18.704178 -0.42856598c-2.4197083 6.5921555 -9.230385 11.442596 -17.48957 12.455765c-8.259178 1.0131607 -16.486244 -1.9925842 -21.126793 -7.718651c-5.688343 2.8223953 -12.513882 3.635437 -18.936913 2.255722c-6.423031 -1.379715 -11.902508 -4.8359756 -15.2023735 -9.589104l0 0c-5.8127728 0.5596924 -11.43292 -1.9183197 -14.071184 -6.2042084c-2.6382637 -4.2858887 -1.7330198 -9.467285 2.2664614 -12.972691l0 0c-5.1851435 -2.5111046 -7.8309164 -7.493969 -6.5576515 -12.350224c1.2732639 -4.8562546 6.17704 -8.485458 12.154201 -8.995121z" fill-rule="evenodd"/><path stroke="#000000" stroke-width="3.0" stroke-linejoin="round" stroke-linecap="butt" d="m14.909967 56.922695l0 0c2.4468842 1.1849976 5.273611 1.7225418 8.100643 1.5404549m3.7028065 17.636871c1.2157288 -0.1170578 2.4073734 -0.36494446 3.5442028 -0.73726654m30.593382 8.070343c-0.8550644 -1.0550842 -1.5709686 -2.1825256 -2.1355133 -3.3631287m40.75336 -1.3741837l0 0c0.44114685 -1.2018509 0.7269745 -2.4388123 0.8527069 -3.6902542m27.442314 -9.085609c0.05718994 -5.8600044 -3.9878693 -11.225487 -10.397713 -13.791809m24.513237 -14.703587c-1.0380554 1.9954414 -2.622757 3.7655678 -4.6298523 5.1715965m-6.56279 -24.275476l0 0c0.17686462 0.8058052 0.25872803 1.6237202 0.24443054 2.4424095m-27.378616 -8.424451l0 0c-0.9696884 0.9388561 -1.7685852 1.9880161 -2.371811 3.114812m-21.2191 -1.2767115l0 0c-0.5167618 0.8527565 -0.9026413 1.7551184 -1.1487579 2.6862993m-25.876698 0.7347717l0 0c1.5087929 0.72709084 2.9046288 1.6022205 4.156849 2.6061687m-36.47163 15.113819l0 0c0.15351868 0.92829895 0.39608765 1.8451576 0.72543716 2.7419853" fill-rule="evenodd"/></g></svg>